# xmcd
#
# Track frame offsets:
#	150
#	21607
#	41795
#	59185
#	74407
#	95352
#	117765
#	140932
#	160420
#	183745
#	199985
#	217620
#	241800
#	255290
#	271175
#	291267
#
# Disc length: 4485 seconds
#
# Revision: 0
# Processed by: cddbd v1.5.1PL2 Copyright (c) Steve Scherf et al.
# Submitted via: audiograbber 1.83.01
#
DISCID=fd118310
DTITLE=The Charlie Daniels Band - The Devil Went Down To Hartford
DYEAR=1980
DGENRE=Country
TTITLE0=Trudy
TTITLE1=Legend Of Wooley Swamp
TTITLE2=Let The Blind Man Play
TTITLE3=El Toreador
TTITLE4=South Sea`s Song
TTITLE5=Lonesome Boy From Dixie
TTITLE6=No Potion For The Pain
TTITLE7=Johnny B. Goode
TTITLE8=Damned Good Cowboy
TTITLE9=In America
TTITLE10=Long Haired Country Boy
TTITLE11=Uneasy Rider
TTITLE12=Texas
TTITLE13=Devil Went Down To Georgia
TTITLE14=South`s Gonna Do It Again
TTITLE15=Orange Blossom Special
EXTD=
EXTT0=
EXTT1=
EXTT2=
EXTT3=
EXTT4=
EXTT5=
EXTT6=
EXTT7=
EXTT8=
EXTT9=
EXTT10=
EXTT11=
EXTT12=
EXTT13=
EXTT14=
EXTT15=
PLAYORDER=
